<?xml version="1.0" standalone="no"?>
<!DOCTYPE svg PUBLIC "-//W3C//DTD SVG 20010904//EN"
 "http://www.w3.org/TR/2001/REC-SVG-20010904/DTD/svg10.dtd">
<svg version="1.0" xmlns="http://www.w3.org/2000/svg"
 width="250.000000pt" height="250.000000pt" viewBox="0 0 250.000000 250.000000"
 preserveAspectRatio="xMidYMid meet">
<metadata>
Created by potrace 1.11, written by Peter Selinger 2001-2013
</metadata>
<g transform="translate(0.000000,250.000000) scale(0.100000,-0.100000)"
fill="#000000" stroke="none">
<path d="M1055 2484 c-533 -82 -960 -511 -1039 -1046 -61 -406 71 -797 363
-1080 103 -101 188 -163 307 -223 405 -207 912 -170 1283 92 92 65 229 200
295 292 313 435 313 1027 0 1462 -66 92 -203 227 -295 292 -259 183 -595 260
-914 211z m35 -1167 c0 -377 0 -383 -22 -427 -40 -79 -63 -84 -340 -88 -264
-4 -304 2 -354 52 -40 40 -56 110 -52 237 l3 94 97 3 97 3 3 -93 3 -93 185 0
185 0 3 348 2 347 95 0 95 0 0 -383z m973 369 c49 -18 76 -42 96 -86 21 -46
29 -566 11 -657 -15 -68 -55 -115 -115 -132 -26 -7 -172 -11 -407 -11 l-368 0
0 275 0 275 95 0 95 0 0 -175 0 -175 253 2 252 3 0 245 0 245 -347 3 -348 2 0
100 0 100 373 0 c287 -1 381 -4 410 -14z"/>
</g>
</svg>
